<svg width="15" height="46" viewBox="0 0 15 46" fill="none" xmlns="http://www.w3.org/2000/svg">
<mask id="path-1-inside-1" fill="white">
<path fill-rule="evenodd" clip-rule="evenodd" d="M14.9998 10.5C14.9998 10.6676 14.9971 10.8343 14.9918 11H14.9999V35.5V36H14.9919C14.8119 41.5668 11.6423 46 7.75855 46C3.87485 46 0.705223 41.5668 0.52524 36H0.517174V35.5V11H0.525155C0.519798 10.8343 0.51709 10.6676 0.51709 10.5C0.51709 4.70101 3.75917 0 7.75847 0C11.7578 0 14.9998 4.70101 14.9998 10.5Z"/>
</mask>
<path d="M14.9918 11L13.9923 10.9677L13.9589 12H14.9918V11ZM14.9999 11H15.9999V10H14.9999V11ZM14.9999 36V37H15.9999V36H14.9999ZM14.9919 36V35H14.0237L13.9924 35.9677L14.9919 36ZM0.52524 36L1.52472 35.9677L1.49343 35H0.52524V36ZM0.517174 36H-0.482826V37H0.517174V36ZM0.517174 11V10H-0.482826V11H0.517174ZM0.525155 11V12H1.55801L1.52463 10.9677L0.525155 11ZM15.9913 11.0323C15.997 10.8559 15.9998 10.6784 15.9998 10.5H13.9998C13.9998 10.6568 13.9973 10.8128 13.9923 10.9677L15.9913 11.0323ZM14.9999 10H14.9918V12H14.9999V10ZM15.9999 35.5V11H13.9999V35.5H15.9999ZM15.9999 36V35.5H13.9999V36H15.9999ZM14.9919 37H14.9999V35H14.9919V37ZM13.9924 35.9677C13.9079 38.5796 13.122 40.8808 11.9529 42.5028C10.7821 44.1273 9.29064 45 7.75855 45V47C10.1102 47 12.1454 45.6562 13.5753 43.6723C15.007 41.686 15.8958 38.9872 15.9913 36.0323L13.9924 35.9677ZM7.75855 45C6.22646 45 4.73506 44.1273 3.56424 42.5028C2.39514 40.8808 1.60917 38.5796 1.52472 35.9677L-0.474238 36.0323C-0.378702 38.9872 0.510122 41.686 1.94176 43.6723C3.37168 45.6562 5.40694 47 7.75855 47V45ZM0.517174 37H0.52524V35H0.517174V37ZM-0.482826 35.5V36H1.51717V35.5H-0.482826ZM-0.482826 11V35.5H1.51717V11H-0.482826ZM0.525155 10H0.517174V12H0.525155V10ZM-0.48291 10.5C-0.48291 10.6784 -0.480028 10.8559 -0.474322 11.0323L1.52463 10.9677C1.51962 10.8128 1.51709 10.6568 1.51709 10.5H-0.48291ZM7.75847 -1C5.33615 -1 3.25139 0.424627 1.81483 2.50765C0.375369 4.59486 -0.48291 7.42365 -0.48291 10.5H1.51709C1.51709 7.77736 2.27985 5.35615 3.46125 3.64311C4.64555 1.92588 6.18148 1 7.75847 1V-1ZM15.9998 10.5C15.9998 7.42365 15.1416 4.59486 13.7021 2.50765C12.2655 0.424627 10.1808 -1 7.75847 -1V1C9.33545 1 10.8714 1.92588 12.0557 3.64311C13.2371 5.35615 13.9998 7.77736 13.9998 10.5H15.9998Z" fill="#F61067" mask="url(#path-1-inside-1)"/>
<path d="M7.74996 37.3536C7.94522 37.5488 8.26181 37.5488 8.45707 37.3536L11.639 34.1716C11.8343 33.9763 11.8343 33.6597 11.639 33.4645C11.4438 33.2692 11.1272 33.2692 10.9319 33.4645L8.10352 36.2929L5.27509 33.4645C5.07983 33.2692 4.76324 33.2692 4.56798 33.4645C4.37272 33.6597 4.37272 33.9763 4.56798 34.1716L7.74996 37.3536ZM7.60352 10L7.60352 37H8.60352L8.60352 10H7.60352Z" fill="#FCFCFC"/>
</svg>
