<svg width="18" height="29" viewBox="0 0 18 29" fill="none" xmlns="http://www.w3.org/2000/svg">
<path d="M13.1 5.4V4.9H12.6H5.4H4.9V5.4V18.9V19.4H5.4H12.6H13.1V18.9V5.4ZM2.7 0.5H15.3C16.5145 0.5 17.5 1.48552 17.5 2.7V26.1C17.5 27.3145 16.5145 28.3 15.3 28.3H2.7C1.48552 28.3 0.5 27.3145 0.5 26.1V2.7C0.5 1.48552 1.48552 0.5 2.7 0.5ZM1.3 26.1C1.3 26.8711 1.92886 27.5 2.7 27.5H15.3C16.0711 27.5 16.7 26.8711 16.7 26.1V2.7C16.7 1.92886 16.0711 1.3 15.3 1.3H2.7C1.92886 1.3 1.3 1.92886 1.3 2.7V26.1ZM4.275 4.1H13.725C13.8201 4.1 13.9 4.17989 13.9 4.275V20.025C13.9 20.1201 13.8201 20.2 13.725 20.2H4.275C4.17989 20.2 4.1 20.1201 4.1 20.025V4.275C4.1 4.17989 4.17989 4.1 4.275 4.1ZM6.975 23.9H11.025C11.1201 23.9 11.2 23.9799 11.2 24.075V24.525C11.2 24.6201 11.1201 24.7 11.025 24.7H6.975C6.87989 24.7 6.8 24.6201 6.8 24.525V24.075C6.8 23.9799 6.87989 23.9 6.975 23.9Z" fill="#FCFCFC" stroke="white"/>
</svg>
